#FILENAME=27121314
# xmcd CD database file
# Copyright (C) 1995-1998 Ti Kan
#
# Track frame offsets:
#	182
#	17500
#	34735
#	53937
#	71915
#	88567
#	102435
#	119357
#	136725
#	155812
#	174552
#	192337
#	211302
#	228237
#	244950
#	262002
#	280030
#	297872
#	316810
#	332172
#
# Disc length: 4629 seconds
#
# Revision: 34546860
# Submitted via:  CDmax 1.7.5
#
DISCID=27121314
DTITLE=Various Artists / Only Dance 1985-1989
TTITLE0=A-Ha / Take On Me
TTITLE1=Pretenders / Don't Get Me Wrong
TTITLE2=Wang Chung / Everybody Have Fun Tonight
TTITLE3=Katrina and the Waves / Walking On Sunshine
TTITLE4=Talking Heads / Wild Wild Life
TTITLE5=Bangles / Walking Down Your Street
TTITLE6=Debbie Gibson / Shake Your Love
TTITLE7=Bananarama / Venus
TTITLE8=Pointer Sisters / Neutron Dance
TTITLE9=Bobby Brown / Don't Be Cruel
TTITLE10=Frankie Goes to Hollywood / Relax
TTITLE11=Expose / What You Don't Know
TTITLE12=The System / Don't Disturb This Groove
TTITLE13=Nu Shooz / I Can't Wait
TTITLE14=Glenn Frey / The Heat Is On
TTITLE15=Stacey Q / Two Of Hearts
TTITLE16=Howard Jones / Things Can Only Get Better
TTITLE17=Karyn White / Secret Rendezvous
TTITLE18=Timbuk 3 / The Future's So Bright, I Gotta Wear Shades
TTITLE19=Falco / Rock Me Amadeus
EXTD=\nYEAR: 1999  ID3G:  17
EXTT0=
EXTT1=
EXTT2=
EXTT3=
EXTT4=
EXTT5=
EXTT6=
EXTT7=
EXTT8=
EXTT9=
EXTT10=
EXTT11=
EXTT12=
EXTT13=
EXTT14=
EXTT15=
EXTT16=
EXTT17=
EXTT18=
EXTT19=
PLAYORDER=
